<svg width="1200" height="720" viewBox="0 0 1200 720" fill="none" xmlns="http://www.w3.org/2000/svg">
  <defs>
    <linearGradient id="bg" x1="0" y1="0" x2="1200" y2="720" gradientUnits="userSpaceOnUse">
      <stop stop-color="#ffffff"/>
      <stop offset="1" stop-color="#f8fafc"/>
    </linearGradient>
    <linearGradient id="accent" x1="0" y1="0" x2="1" y2="1">
      <stop stop-color="#0ea5e9"/>
      <stop offset="1" stop-color="#818cf8"/>
    </linearGradient>
  </defs>
  <rect width="1200" height="720" rx="48" fill="url(#bg)"/>
  <rect x="72" y="140" width="1040" height="420" rx="32" fill="#fff" stroke="#e2e8f0" stroke-width="2"/>
  <rect x="104" y="188" width="992" height="64" rx="20" fill="#e2e8f0"/>
  <rect x="104" y="278" width="296" height="34" rx="12" fill="#f8fafc"/>
  <rect x="104" y="334" width="428" height="34" rx="12" fill="#f8fafc"/>
  <rect x="104" y="390" width="728" height="34" rx="12" fill="#f8fafc"/>
  <rect x="104" y="446" width="512" height="34" rx="12" fill="#f8fafc"/>
  <rect x="104" y="502" width="792" height="34" rx="12" fill="#f8fafc"/>
  <rect x="756" y="218" width="296" height="200" rx="24" fill="url(#accent)" opacity="0.15"/>
  <circle cx="888" cy="197" r="18" fill="#22c55e"/>
  <circle cx="952" cy="197" r="18" fill="#f59e0b"/>
  <circle cx="1016" cy="197" r="18" fill="#ef4444"/>
  <rect x="280" y="148" width="248" height="30" rx="15" fill="#f8fafc"/>
  <rect x="280" y="198" width="688" height="40" rx="20" fill="#0ea5e9"/>
  <rect x="280" y="260" width="688" height="16" rx="8" fill="#ffffff" opacity="0.8"/>
  <rect x="280" y="304" width="520" height="16" rx="8" fill="#ffffff" opacity="0.8"/>
  <rect x="280" y="348" width="600" height="16" rx="8" fill="#ffffff" opacity="0.8"/>
  <path d="M400 520C430 500 470 520 500 510C530 500 560 520 590 515C620 510 650 525 680 510C710 495 750 515 780 500" stroke="#0ea5e9" stroke-width="12" stroke-linecap="round"/>
  <path d="M380 560C420 530 470 560 510 545C560 530 600 570 650 560" stroke="#818cf8" stroke-width="10" stroke-linecap="round"/>
</svg>
